<svg width="180" height="180" viewBox="0 0 180 180" fill="none" xmlns="http://www.w3.org/2000/svg">
<path opacity="0.4" d="M20.775 75.0001C17.55 75.0001 15 72.4501 15 69.2251V51.9001C15 31.5751 31.575 15.0001 51.9 15.0001H69.225C72.45 15.0001 75 17.5501 75 20.7751C75 24.0001 72.45 26.5501 69.225 26.5501H51.9C37.875 26.5501 26.55 37.9501 26.55 51.9001V69.2251C26.55 72.4501 23.925 75.0001 20.775 75.0001Z" fill="#EDEDED"/>
<path opacity="0.4" d="M159.225 75.0001C156.075 75.0001 153.45 72.4501 153.45 69.2251V51.9001C153.45 37.8751 142.05 26.5501 128.1 26.5501H110.775C107.55 26.5501 105 23.9251 105 20.7751C105 17.6251 107.55 15.0001 110.775 15.0001H128.1C148.425 15.0001 165 31.5751 165 51.9001V69.2251C165 72.4501 162.45 75.0001 159.225 75.0001Z" fill="#EDEDED"/>
<path d="M128.099 165H117.674C114.524 165 111.899 162.45 111.899 159.225C111.899 156.075 114.449 153.45 117.674 153.45H128.099C142.124 153.45 153.449 142.05 153.449 128.1V117.75C153.449 114.6 155.999 111.975 159.224 111.975C162.374 111.975 164.999 114.525 164.999 117.75V128.1C164.999 148.425 148.424 165 128.099 165Z" fill="#EDEDED"/>
<path d="M69.225 165H51.9C31.575 165 15 148.425 15 128.1V110.775C15 107.55 17.55 105 20.775 105C24 105 26.55 107.55 26.55 110.775V128.1C26.55 142.125 37.95 153.45 51.9 153.45H69.225C72.375 153.45 75 156 75 159.225C75 162.45 72.45 165 69.225 165Z" fill="#EDEDED"/>
<path d="M138.45 84.225H128.25H51.7504H41.5504C38.3254 84.225 35.7754 86.85 35.7754 90C35.7754 93.15 38.3254 95.775 41.5504 95.775H51.7504H128.25H138.45C141.675 95.775 144.225 93.15 144.225 90C144.225 86.85 141.675 84.225 138.45 84.225Z" fill="#00FFAB" fill-opacity="0.3"/>
<path d="M51.75 104.55V107.025C51.75 119.475 61.8 129.525 74.25 129.525H105.75C118.2 129.525 128.25 119.475 128.25 107.025V104.55C128.25 103.65 127.575 102.975 126.675 102.975H53.325C52.425 102.975 51.75 103.65 51.75 104.55Z" fill="#EDEDED"/>
<path opacity="0.4" d="M51.75 75.45V72.975C51.75 60.525 61.8 50.475 74.25 50.475H105.75C118.2 50.475 128.25 60.525 128.25 72.975V75.45C128.25 76.35 127.575 77.025 126.675 77.025H53.325C52.425 77.025 51.75 76.35 51.75 75.45Z" fill="#EDEDED"/>
<circle cx="90" cy="135" r="10" fill="#00FFAB"/>
<circle cx="90" cy="156" r="5" fill="#00FFAB"/>
</svg>
