<svg width="32" height="32" viewBox="0 0 32 32" fill="none" xmlns="http://www.w3.org/2000/svg">
<path d="M28.1199 9.30667C26.9866 8.05333 25.0932 7.42667 22.3466 7.42667H22.0266V7.37333C22.0266 5.13333 22.0266 2.36 17.0132 2.36H14.9866C9.97322 2.36 9.97322 5.14667 9.97322 7.37333V7.44H9.65322C6.89322 7.44 5.01322 8.06667 3.87989 9.32C2.55989 10.7867 2.59989 12.76 2.73322 14.1067L2.74655 14.2L2.87989 15.6C2.89322 15.6133 2.91989 15.64 2.94655 15.6533C3.38655 15.9467 3.83989 16.24 4.31989 16.5067C4.50655 16.6267 4.70655 16.7333 4.90655 16.84C7.18655 18.0933 9.69322 18.9333 12.2399 19.3467C12.3599 20.6 12.9066 22.0667 15.8266 22.0667C18.7466 22.0667 19.3199 20.6133 19.4132 19.32C22.1332 18.88 24.7599 17.9333 27.1332 16.5467C27.2132 16.5067 27.2666 16.4667 27.3332 16.4267C27.9466 16.08 28.5199 15.7067 29.0799 15.2933C29.1066 15.28 29.1332 15.2533 29.1466 15.2267L29.1999 14.7467L29.2666 14.12C29.2799 14.04 29.2799 13.9733 29.2932 13.88C29.3999 12.5333 29.3732 10.6933 28.1199 9.30667ZM17.4532 18.44C17.4532 19.8533 17.4532 20.0667 15.8132 20.0667C14.1732 20.0667 14.1732 19.8133 14.1732 18.4533V16.7733H17.4532V18.44ZM11.8799 7.42667V7.37333C11.8799 5.10667 11.8799 4.26667 14.9866 4.26667H17.0132C20.1199 4.26667 20.1199 5.12 20.1199 7.37333V7.44H11.8799V7.42667Z" fill="#00FFAB"/>
<path opacity="0.4" d="M27.3332 16.4C27.2666 16.44 27.1999 16.48 27.1332 16.52C24.7599 17.9067 22.1332 18.84 19.4132 19.2933C19.3066 20.5733 18.7465 22.04 15.8265 22.04C12.9065 22.04 12.3465 20.5867 12.2399 19.32C9.69322 18.92 7.18655 18.08 4.90655 16.8133C4.70655 16.7067 4.50655 16.6 4.31988 16.48C3.83988 16.2133 3.38655 15.92 2.94655 15.6267C2.91988 15.6133 2.89322 15.5867 2.87988 15.5733L3.69322 24.2533C3.97322 26.9067 5.06655 29.64 10.9332 29.64H21.0932C26.9599 29.64 28.0532 26.9067 28.3332 24.24L29.1732 15.2C29.1599 15.2267 29.1332 15.2533 29.1066 15.2667C28.5332 15.68 27.9466 16.0667 27.3332 16.4Z" fill="#00FFAB"/>
</svg>
