<svg width="20" height="20" viewBox="0 0 20 20" fill="none" xmlns="http://www.w3.org/2000/svg">
<path d="M4.16663 8.33329H5.83329C7.49996 8.33329 8.33329 7.49996 8.33329 5.83329V4.16663C8.33329 2.49996 7.49996 1.66663 5.83329 1.66663H4.16663C2.49996 1.66663 1.66663 2.49996 1.66663 4.16663V5.83329C1.66663 7.49996 2.49996 8.33329 4.16663 8.33329Z" stroke="#0E1F50" stroke-width="1.5" stroke-miterlimit="10" stroke-linecap="round" stroke-linejoin="round"/>
<path d="M14.1666 8.33329H15.8333C17.5 8.33329 18.3333 7.49996 18.3333 5.83329V4.16663C18.3333 2.49996 17.5 1.66663 15.8333 1.66663H14.1666C12.5 1.66663 11.6666 2.49996 11.6666 4.16663V5.83329C11.6666 7.49996 12.5 8.33329 14.1666 8.33329Z" stroke="#0E1F50" stroke-width="1.5" stroke-miterlimit="10" stroke-linecap="round" stroke-linejoin="round"/>
<path d="M14.1666 18.3333H15.8333C17.5 18.3333 18.3333 17.5 18.3333 15.8333V14.1666C18.3333 12.5 17.5 11.6666 15.8333 11.6666H14.1666C12.5 11.6666 11.6666 12.5 11.6666 14.1666V15.8333C11.6666 17.5 12.5 18.3333 14.1666 18.3333Z" stroke="#0E1F50" stroke-width="1.5" stroke-miterlimit="10" stroke-linecap="round" stroke-linejoin="round"/>
<path d="M4.16663 18.3333H5.83329C7.49996 18.3333 8.33329 17.5 8.33329 15.8333V14.1666C8.33329 12.5 7.49996 11.6666 5.83329 11.6666H4.16663C2.49996 11.6666 1.66663 12.5 1.66663 14.1666V15.8333C1.66663 17.5 2.49996 18.3333 4.16663 18.3333Z" stroke="#0E1F50" stroke-width="1.5" stroke-miterlimit="10" stroke-linecap="round" stroke-linejoin="round"/>
</svg>
