<svg width="398" height="32" viewBox="0 0 398 32" fill="none" xmlns="http://www.w3.org/2000/svg">
<circle cx="16" cy="16" r="16" fill="#00FFAB"/>
<path d="M10.167 16.8333L13.5003 20.1667L21.8337 11.8333" stroke="white" stroke-width="2" stroke-linecap="round" stroke-linejoin="round"/>
<rect x="32" y="15" width="61.3327" height="2" fill="#00FFAB"/>
<circle cx="109.332" cy="16" r="16" fill="#00FFAB"/>
<path d="M103.498 16.8333L106.831 20.1667L115.165 11.8333" stroke="white" stroke-width="2" stroke-linecap="round" stroke-linejoin="round"/>
<rect x="125.332" y="15" width="61.3327" height="2" fill="#00FFAB"/>
<circle cx="202.664" cy="16" r="16" fill="#00FFAB"/>
<path d="M196.83 16.8333L200.163 20.1667L208.497 11.8333" stroke="white" stroke-width="2" stroke-linecap="round" stroke-linejoin="round"/>
<rect x="218.664" y="15" width="61.3327" height="2" fill="#00FFAB"/>
<circle cx="295.883" cy="16" r="16" fill="#00FFAB"/>
<path d="M290.049 16.8333L293.382 20.1667L301.715 11.8333" stroke="white" stroke-width="2" stroke-linecap="round" stroke-linejoin="round"/>
<rect x="311.883" y="15" width="53.6471" height="2" fill="#00FFAB"/>
<circle cx="381.529" cy="16" r="16" fill="#00FFAB"/>
<path d="M375.695 16.8333L379.029 20.1667L387.362 11.8333" stroke="white" stroke-width="2" stroke-linecap="round" stroke-linejoin="round"/>
</svg>
