<svg width="32" height="32" viewBox="0 0 32 32" fill="none" xmlns="http://www.w3.org/2000/svg">
<path opacity="0.4" d="M15.9998 29.3333C23.3636 29.3333 29.3332 23.3638 29.3332 16C29.3332 8.63619 23.3636 2.66666 15.9998 2.66666C8.63604 2.66666 2.6665 8.63619 2.6665 16C2.6665 23.3638 8.63604 29.3333 15.9998 29.3333Z" fill="#00FFAB"/>
<path d="M20.9467 21.24C20.7734 21.24 20.6 21.2 20.44 21.0933L16.3067 18.6267C15.28 18.0133 14.52 16.6667 14.52 15.48V10.0133C14.52 9.46667 14.9734 9.01334 15.52 9.01334C16.0667 9.01334 16.52 9.46667 16.52 10.0133V15.48C16.52 15.96 16.92 16.6667 17.3334 16.9067L21.4667 19.3733C21.9467 19.6533 22.0934 20.2667 21.8134 20.7467C21.6134 21.0667 21.28 21.24 20.9467 21.24Z" fill="#00FFAB"/>
</svg>
