<svg width="140" height="140" viewBox="0 0 140 140" fill="none" xmlns="http://www.w3.org/2000/svg">
<path d="M109.375 46.6665V58.9165C106.808 58.5665 103.892 58.3915 100.625 58.3332V46.6665C100.625 28.2915 95.4333 16.0415 70 16.0415C44.5667 16.0415 39.375 28.2915 39.375 46.6665V58.3332C36.1083 58.3915 33.1917 58.5665 30.625 58.9165V46.6665C30.625 29.7498 34.7083 7.2915 70 7.2915C105.292 7.2915 109.375 29.7498 109.375 46.6665Z" fill="#25335C"/>
<path opacity="0.4" d="M128.331 87.5002V99.1668C128.331 122.5 122.497 128.333 99.1641 128.333H40.8307C17.4974 128.333 11.6641 122.5 11.6641 99.1668V87.5002C11.6641 68.0168 15.7474 60.7252 30.6224 58.9169C33.1891 58.5669 36.1057 58.3918 39.3724 58.3335H100.622C103.889 58.3918 106.806 58.5669 109.372 58.9169C124.247 60.7252 128.331 68.0168 128.331 87.5002Z" fill="#25335C"/>
<path d="M46.6654 99.1667C45.907 99.1667 45.1487 98.9916 44.4487 98.7C43.6903 98.4083 43.1071 98 42.5237 97.475C41.4737 96.3667 40.832 94.85 40.832 93.3333C40.832 92.575 41.007 91.8166 41.2986 91.1166C41.5903 90.4166 41.9987 89.775 42.5237 89.1916C43.1071 88.6666 43.6903 88.2583 44.4487 87.9667C46.607 87.0333 49.1736 87.5583 50.807 89.1916C51.332 89.775 51.7404 90.4166 52.0321 91.1166C52.3238 91.8166 52.4987 92.575 52.4987 93.3333C52.4987 94.85 51.857 96.3667 50.807 97.475C49.6986 98.525 48.182 99.1667 46.6654 99.1667Z" fill="#25335C"/>
<path d="M70.0013 99.1664C68.4263 99.1664 66.968 98.5248 65.8597 97.4748C65.3347 96.8915 64.9262 96.2498 64.6346 95.5498C64.3429 94.8498 64.168 94.0914 64.168 93.3331C64.168 91.7581 64.8097 90.2997 65.8597 89.1914C68.018 87.033 71.9263 87.033 74.1429 89.1914C75.1929 90.2997 75.8346 91.7581 75.8346 93.3331C75.8346 94.0914 75.6597 94.8498 75.368 95.5498C75.0764 96.2498 74.6679 96.8915 74.1429 97.4748C73.0346 98.5248 71.518 99.1664 70.0013 99.1664Z" fill="#25335C"/>
<path d="M93.3333 99.1665C91.8167 99.1665 90.3 98.5249 89.1917 97.4749C88.1417 96.3666 87.5 94.9082 87.5 93.3332C87.5 91.7582 88.1417 90.2998 89.1917 89.1915C91.4084 87.0332 95.3166 87.0332 97.4749 89.1915C97.7083 89.4832 97.9416 89.7749 98.1749 90.1249C98.4083 90.4165 98.5834 90.7665 98.7001 91.1165C98.8751 91.4665 98.9917 91.8166 99.0501 92.1666C99.1084 92.5749 99.1667 92.9832 99.1667 93.3332C99.1667 94.8499 98.525 96.3666 97.4749 97.4749C96.3666 98.5249 94.85 99.1665 93.3333 99.1665Z" fill="#25335C"/>
</svg>
