<svg width="32" height="32" viewBox="0 0 32 32" fill="none" xmlns="http://www.w3.org/2000/svg">
<path fill-rule="evenodd" clip-rule="evenodd" d="M10.666 1.66669C11.2183 1.66669 11.666 2.1144 11.666 2.66669V6.66669C11.666 7.21897 11.2183 7.66669 10.666 7.66669C10.1137 7.66669 9.66602 7.21897 9.66602 6.66669V2.66669C9.66602 2.1144 10.1137 1.66669 10.666 1.66669Z" fill="#00FFAB"/>
<path fill-rule="evenodd" clip-rule="evenodd" d="M21.334 1.66669C21.8863 1.66669 22.334 2.1144 22.334 2.66669V6.66669C22.334 7.21897 21.8863 7.66669 21.334 7.66669C20.7817 7.66669 20.334 7.21897 20.334 6.66669V2.66669C20.334 2.1144 20.7817 1.66669 21.334 1.66669Z" fill="#00FFAB"/>
<path opacity="0.4" d="M28.6673 11.16V22.84C28.6673 23.0534 28.654 23.2667 28.6407 23.4667H3.36065C3.34732 23.2667 3.33398 23.0534 3.33398 22.84V11.16C3.33398 7.57335 6.24065 4.66669 9.82732 4.66669H22.174C25.7607 4.66669 28.6673 7.57335 28.6673 11.16Z" fill="#00FFAB"/>
<path d="M28.6394 23.4667C28.3194 26.76 25.546 29.3333 22.1727 29.3333H9.82604C6.45271 29.3333 3.67937 26.76 3.35938 23.4667H28.6394Z" fill="#00FFAB"/>
<path d="M18.0393 15.4933C18.6393 15.08 19.0127 14.4666 19.0127 13.64C19.0127 11.9066 17.626 11.0133 15.9993 11.0133C14.3727 11.0133 12.9727 11.9066 12.9727 13.64C12.9727 14.4666 13.3593 15.0933 13.946 15.4933C13.1327 15.9733 12.666 16.7466 12.666 17.6533C12.666 19.3066 13.9327 20.3333 15.9993 20.3333C18.0527 20.3333 19.3327 19.3066 19.3327 17.6533C19.3327 16.7466 18.866 15.96 18.0393 15.4933ZM15.9993 12.6666C16.6927 12.6666 17.1993 13.0533 17.1993 13.72C17.1993 14.3733 16.6927 14.7866 15.9993 14.7866C15.306 14.7866 14.7993 14.3733 14.7993 13.72C14.7993 13.0533 15.306 12.6666 15.9993 12.6666ZM15.9993 18.6666C15.1193 18.6666 14.4793 18.2266 14.4793 17.4266C14.4793 16.6266 15.1193 16.2 15.9993 16.2C16.8793 16.2 17.5193 16.64 17.5193 17.4266C17.5193 18.2266 16.8793 18.6666 15.9993 18.6666Z" fill="#00FFAB"/>
</svg>
