<svg width="88" height="88" viewBox="0 0 88 88" fill="none" xmlns="http://www.w3.org/2000/svg">
<path opacity="0.4" d="M77.3299 78.8335C77.3299 79.8602 76.5232 80.6668 75.4966 80.6668H12.5033C11.4766 80.6668 10.6699 79.8602 10.6699 78.8335C10.6699 63.6535 25.6299 51.3335 43.9999 51.3335C47.7766 51.3335 51.4433 51.8467 54.8166 52.8367C52.6533 55.4034 51.3332 58.7402 51.3332 62.3335C51.3332 65.0835 52.1032 67.6868 53.4599 69.8868C54.1932 71.1335 55.1466 72.2701 56.2466 73.2234C58.8132 75.5701 62.2232 77.0002 65.9999 77.0002C70.1066 77.0002 73.8099 75.3135 76.4499 72.6001C77.0366 74.5801 77.3299 76.6702 77.3299 78.8335Z" fill="#0E1F50"/>
<path d="M76.8897 52.5432C74.2497 49.5366 70.3263 47.6665 65.9997 47.6665C61.893 47.6665 58.153 49.3533 55.4764 52.1033C52.9097 54.7433 51.333 58.3732 51.333 62.3332C51.333 65.0832 52.103 67.6865 53.4596 69.8865C54.193 71.1332 55.1463 72.2697 56.2463 73.2231C58.813 75.5697 62.223 76.9998 65.9997 76.9998C71.353 76.9998 76.0097 74.1398 78.5397 69.8865C79.3097 68.6398 79.8964 67.2098 80.2264 65.7431C80.5197 64.6431 80.6663 63.5065 80.6663 62.3332C80.6663 58.5932 79.2363 55.1466 76.8897 52.5432ZM71.4997 65.0098H68.7497V67.8699C68.7497 69.3732 67.503 70.6199 65.9997 70.6199C64.4963 70.6199 63.2497 69.3732 63.2497 67.8699V65.0098H60.4997C58.9963 65.0098 57.7497 63.7631 57.7497 62.2598C57.7497 60.7564 58.9963 59.5098 60.4997 59.5098H63.2497V56.9066C63.2497 55.4032 64.4963 54.1566 65.9997 54.1566C67.503 54.1566 68.7497 55.4032 68.7497 56.9066V59.5098H71.4997C73.003 59.5098 74.2497 60.7564 74.2497 62.2598C74.2497 63.7631 73.003 65.0098 71.4997 65.0098Z" fill="#0E1F50"/>
<path d="M44.0003 44.0002C54.1255 44.0002 62.3337 35.7921 62.3337 25.6668C62.3337 15.5416 54.1255 7.3335 44.0003 7.3335C33.8751 7.3335 25.667 15.5416 25.667 25.6668C25.667 35.7921 33.8751 44.0002 44.0003 44.0002Z" fill="#0E1F50"/>
</svg>
