<svg width="24" height="24" viewBox="0 0 24 24" fill="none" xmlns="http://www.w3.org/2000/svg">
<path opacity="0.4" d="M19.7897 4.21995C16.8297 1.26995 12.0297 1.26995 9.08966 4.21995C7.01966 6.26995 6.39966 9.21995 7.19966 11.8199L2.49966 16.5199C2.16966 16.8599 1.93966 17.5299 2.00966 18.0099L2.30966 20.1899C2.41966 20.9099 3.08966 21.5899 3.80966 21.6899L5.98966 21.9899C6.46966 22.0599 7.13966 21.8399 7.47966 21.4899L8.29966 20.6699C8.49966 20.4799 8.49966 20.1599 8.29966 19.9599L6.35966 18.0199C6.06966 17.7299 6.06966 17.2499 6.35966 16.9599C6.64966 16.6699 7.12966 16.6699 7.41966 16.9599L9.36966 18.9099C9.55966 19.0999 9.87966 19.0999 10.0697 18.9099L12.1897 16.7999C14.7797 17.6099 17.7297 16.9799 19.7897 14.9299C22.7397 11.9799 22.7397 7.16995 19.7897 4.21995ZM14.4997 11.9999C13.1197 11.9999 11.9997 10.8799 11.9997 9.49995C11.9997 8.11995 13.1197 6.99995 14.4997 6.99995C15.8797 6.99995 16.9997 8.11995 16.9997 9.49995C16.9997 10.8799 15.8797 11.9999 14.4997 11.9999Z" fill="#0E1F50"/>
<path d="M14.5 12C15.8807 12 17 10.8807 17 9.5C17 8.11929 15.8807 7 14.5 7C13.1193 7 12 8.11929 12 9.5C12 10.8807 13.1193 12 14.5 12Z" fill="#0E1F50"/>
</svg>
