<svg width="28" height="28" viewBox="0 0 28 28" fill="none" xmlns="http://www.w3.org/2000/svg">
<path d="M21.0466 15.8083C20.5566 16.2867 20.2766 16.975 20.3466 17.71C20.4516 18.97 21.6066 19.8917 22.8666 19.8917H25.0833V21.28C25.0833 23.695 23.1116 25.6667 20.6966 25.6667H7.30329C4.88829 25.6667 2.91663 23.695 2.91663 21.28V13.4284C2.91663 11.0134 4.88829 9.04169 7.30329 9.04169H20.6966C23.1116 9.04169 25.0833 11.0134 25.0833 13.4284V15.1084H22.7266C22.0733 15.1084 21.4783 15.365 21.0466 15.8083Z" stroke="#0E1F50" stroke-width="1.5" stroke-linecap="round" stroke-linejoin="round"/>
<path d="M2.91663 14.4783V9.14673C2.91663 7.75839 3.76829 6.52168 5.06329 6.03168L14.3266 2.53168C15.7733 1.98334 17.325 3.05671 17.325 4.60838V9.0417" stroke="#0E1F50" stroke-width="1.5" stroke-linecap="round" stroke-linejoin="round"/>
<path d="M26.3186 16.2985V18.7019C26.3186 19.3436 25.8052 19.8685 25.1519 19.8919H22.8652C21.6052 19.8919 20.4502 18.9702 20.3452 17.7102C20.2752 16.9752 20.5552 16.2869 21.0452 15.8085C21.4769 15.3652 22.0719 15.1086 22.7252 15.1086H25.1519C25.8052 15.1319 26.3186 15.6568 26.3186 16.2985Z" stroke="#0E1F50" stroke-width="1.5" stroke-linecap="round" stroke-linejoin="round"/>
<path d="M8.16663 14H16.3333" stroke="#0E1F50" stroke-width="1.5" stroke-linecap="round" stroke-linejoin="round"/>
</svg>
