<svg width="52" height="52" viewBox="0 0 52 52" fill="none" xmlns="http://www.w3.org/2000/svg">
<rect width="52" height="52" rx="26" fill="#FCFCFC"/>
<path opacity="0.4" d="M34.6201 22.45C33.5701 17.83 29.5401 15.75 26.0001 15.75C26.0001 15.75 26.0001 15.75 25.9901 15.75C22.4601 15.75 18.4201 17.82 17.3701 22.44C16.2001 27.6 19.3601 31.97 22.2201 34.72C23.2801 35.74 24.6401 36.25 26.0001 36.25C27.3601 36.25 28.7201 35.74 29.7701 34.72C32.6301 31.97 35.7901 27.61 34.6201 22.45Z" fill="#292D32"/>
<path d="M25.9996 27.46C27.7393 27.46 29.1496 26.0497 29.1496 24.31C29.1496 22.5703 27.7393 21.16 25.9996 21.16C24.2599 21.16 22.8496 22.5703 22.8496 24.31C22.8496 26.0497 24.2599 27.46 25.9996 27.46Z" fill="#292D32"/>
</svg>
