<svg width="75" height="15" viewBox="0 0 75 15" fill="none" xmlns="http://www.w3.org/2000/svg">
<path d="M3.1108 11.1023C2.67443 11.1023 2.27216 11.0409 1.90398 10.9182C1.54034 10.7909 1.2267 10.6136 0.963068 10.3864C0.699432 10.1545 0.492613 9.87955 0.342613 9.56136C0.197159 9.24318 0.124432 8.89091 0.124432 8.50455C0.124432 8.12273 0.172159 7.78182 0.267613 7.48182C0.363068 7.17727 0.490341 6.89545 0.649432 6.63636C0.813068 6.37273 1.0017 6.12273 1.21534 5.88636C1.43352 5.64545 1.66307 5.39773 1.90398 5.14318L1.47443 4.65909L2.72898 3.52045C2.77898 3.57955 2.83807 3.64545 2.90625 3.71818C2.97443 3.79091 3.04261 3.86591 3.1108 3.94318C3.18352 4.02045 3.25398 4.09545 3.32216 4.16818C3.39034 4.24091 3.4517 4.30682 3.50625 4.36591C3.83352 4.71591 4.1517 5.05682 4.4608 5.38864C4.77443 5.71591 5.0517 6.04545 5.29261 6.37727C5.53807 6.70455 5.7358 7.03409 5.8858 7.36591C6.0267 7.69318 6.09716 8.02955 6.09716 8.375V8.40909C6.09261 8.80909 6.01307 9.16818 5.85852 9.48636C5.70398 9.8 5.47898 10.0909 5.18352 10.3591C4.9108 10.5909 4.59943 10.7727 4.24943 10.9045C3.90398 11.0364 3.52443 11.1023 3.1108 11.1023ZM3.02898 6.18636C2.84716 6.39091 2.67443 6.58409 2.5108 6.76591C2.3517 6.94773 2.21307 7.12955 2.09489 7.31136C1.98125 7.49318 1.89489 7.67955 1.8358 7.87045C1.78125 8.02955 1.75398 8.20227 1.75398 8.38864C1.75398 8.425 1.75625 8.46364 1.7608 8.50455C1.77443 8.67273 1.82443 8.81818 1.9108 8.94091C1.99716 9.05909 2.10398 9.15909 2.23125 9.24091C2.35852 9.31818 2.49943 9.375 2.65398 9.41136C2.80852 9.44773 2.9608 9.46591 3.1108 9.46591C3.28352 9.46591 3.44943 9.44091 3.60852 9.39091C3.76761 9.34091 3.90625 9.27045 4.02443 9.17955C4.14716 9.08864 4.24489 8.97727 4.31761 8.84545C4.39034 8.71364 4.4267 8.56818 4.4267 8.40909C4.4267 8.21364 4.38807 8.02273 4.3108 7.83636C4.23352 7.65 4.12898 7.46591 3.99716 7.28409C3.86989 7.10227 3.72216 6.92045 3.55398 6.73864C3.3858 6.55682 3.2108 6.37273 3.02898 6.18636ZM9.63574 11.1023H7.93801V1.27045H9.63574V11.1023ZM15.5303 11.1023H15.2712C15.0848 11.1023 14.9075 11.0909 14.7394 11.0682C14.5757 11.0455 14.4144 10.9818 14.2553 10.8773C14.2007 11.4636 14.0666 11.9955 13.853 12.4727C13.6394 12.95 13.353 13.3568 12.9939 13.6932C12.6394 14.0341 12.2144 14.2977 11.7189 14.4841C11.2235 14.6705 10.6666 14.7636 10.0485 14.7636H9.19618V13.0659H10.0485C10.4848 13.0659 10.8621 13.0205 11.1803 12.9295C11.4985 12.8386 11.7598 12.6932 11.9644 12.4932C12.1689 12.2932 12.3212 12.0318 12.4212 11.7091C12.5212 11.3909 12.5712 11.0023 12.5712 10.5432V6.39091H14.2689V8.42955C14.2689 8.63864 14.3121 8.80682 14.3985 8.93409C14.4894 9.06136 14.5916 9.16136 14.7053 9.23409C14.8235 9.30227 14.9371 9.34773 15.0462 9.37045C15.1553 9.39318 15.2303 9.40455 15.2712 9.40455H15.5303V11.1023ZM20.3288 9.81364C20.3697 9.81364 20.4334 9.80682 20.5197 9.79318C20.6107 9.775 20.7016 9.725 20.7925 9.64318C20.8834 9.56136 20.9629 9.43636 21.0311 9.26818C21.1038 9.09545 21.1402 8.85455 21.1402 8.54545C21.1402 8.42727 21.1175 8.27727 21.072 8.09545C21.0311 7.90909 20.9561 7.72955 20.847 7.55682C20.7425 7.37955 20.5993 7.22955 20.4175 7.10682C20.2402 6.97955 20.0152 6.91591 19.7425 6.91591C19.5061 6.91591 19.3129 6.98636 19.1629 7.12727C19.0129 7.26818 18.8857 7.44318 18.7811 7.65227C18.6811 7.86136 18.5947 8.08864 18.522 8.33409C18.4538 8.575 18.3788 8.79545 18.297 8.99545C18.4652 9.09091 18.6425 9.18864 18.8288 9.28864C19.0197 9.38409 19.2061 9.47045 19.3879 9.54773C19.5697 9.625 19.7402 9.68864 19.8993 9.73864C20.0629 9.78864 20.2061 9.81364 20.3288 9.81364ZM19.7425 5.225C20.2107 5.225 20.6175 5.30909 20.9629 5.47727C21.3129 5.64545 21.6061 5.87273 21.8425 6.15909C22.0788 6.44545 22.2561 6.77727 22.3743 7.15455C22.497 7.53182 22.5629 7.92727 22.572 8.34091C22.572 8.59545 22.622 8.79545 22.722 8.94091C22.822 9.08182 22.9357 9.18636 23.0629 9.25455C23.1902 9.32273 23.3152 9.36591 23.4379 9.38409C23.5607 9.39773 23.6447 9.40455 23.6902 9.40455H23.8811V11.1023H23.6902C23.3675 11.1023 23.0697 11.0568 22.797 10.9659C22.5288 10.8705 22.2834 10.75 22.0607 10.6045C21.9243 10.7955 21.7743 10.9455 21.6107 11.0545C21.447 11.1682 21.2834 11.2523 21.1197 11.3068C20.9561 11.3614 20.7993 11.3955 20.6493 11.4091C20.4993 11.4227 20.3697 11.4295 20.2607 11.4295C20.0334 11.4295 19.8175 11.4068 19.6129 11.3614C19.4084 11.3205 19.1993 11.2591 18.9857 11.1773C18.7766 11.1 18.5584 11.0045 18.3311 10.8909C18.1038 10.7727 17.8561 10.6409 17.5879 10.4955C17.3834 10.7136 17.1629 10.8705 16.9266 10.9659C16.6947 11.0568 16.422 11.1023 16.1084 11.1023H15.2697L15.2561 9.40455H16.1084C16.2084 9.40455 16.2947 9.375 16.3675 9.31591C16.4447 9.25682 16.5129 9.175 16.572 9.07045C16.6357 8.96136 16.6925 8.83182 16.7425 8.68182C16.797 8.52727 16.8516 8.35682 16.9061 8.17045C16.997 7.84318 17.1061 7.50682 17.2334 7.16136C17.3607 6.81136 17.5288 6.49318 17.7379 6.20682C17.9516 5.92045 18.2197 5.68636 18.5425 5.50455C18.8652 5.31818 19.2652 5.225 19.7425 5.225ZM30.2262 3.65C30.5216 4.04091 30.8216 4.43636 31.1262 4.83636C31.2534 5.00909 31.3875 5.18864 31.5284 5.375C31.6739 5.56136 31.8194 5.75227 31.9648 5.94773C32.1148 6.13864 32.2603 6.32955 32.4012 6.52045C32.5421 6.71136 32.6784 6.89318 32.8103 7.06591C33.0921 7.44318 33.2762 7.85455 33.3625 8.3C33.3898 8.45909 33.4034 8.61818 33.4034 8.77727C33.4034 9.06364 33.3557 9.35 33.2603 9.63636C33.1694 9.90909 33.0353 10.1591 32.858 10.3864C32.6853 10.6136 32.4739 10.8091 32.2239 10.9727C31.9739 11.1364 31.6875 11.2636 31.3648 11.3545C31.0421 11.4455 30.6875 11.4909 30.3012 11.4909C29.9739 11.4909 29.6353 11.4568 29.2853 11.3886C28.9353 11.325 28.5784 11.2023 28.2148 11.0205C28.133 10.9841 28.0534 10.9477 27.9762 10.9114C27.908 10.8795 27.8375 10.8477 27.7648 10.8159C27.6921 10.7795 27.6307 10.7477 27.5807 10.7205C27.1444 10.8523 26.6603 10.9477 26.1284 11.0068C25.6012 11.0705 25.0171 11.1023 24.3762 11.1023H23.6057V9.40455H24.3762C24.5034 9.40455 24.6148 9.40682 24.7103 9.41136C24.8103 9.41136 24.9057 9.41136 24.9966 9.41136C25.083 9.41136 25.1694 9.40909 25.2557 9.40455C25.3466 9.4 25.4466 9.39091 25.5557 9.37727C25.4375 9.24091 25.3307 9.10909 25.2353 8.98182C25.1444 8.85 25.0648 8.71364 24.9966 8.57273C24.933 8.42727 24.883 8.275 24.8466 8.11591C24.8148 7.95227 24.7989 7.77273 24.7989 7.57727C24.7989 7.20455 24.8694 6.86136 25.0103 6.54773C25.1557 6.23409 25.3534 5.96591 25.6034 5.74318C25.858 5.52045 26.1534 5.34773 26.4898 5.225C26.8307 5.09773 27.1966 5.03409 27.5875 5.03409C28.0284 5.03409 28.4194 5.12273 28.7603 5.3C29.1057 5.47273 29.3944 5.69318 29.6262 5.96136C29.8625 6.225 30.0398 6.51136 30.158 6.82045C30.2807 7.12955 30.3421 7.41818 30.3421 7.68636C30.3421 7.90455 30.3194 8.10455 30.2739 8.28636C30.233 8.46818 30.1739 8.64091 30.0966 8.80455C30.0194 8.96364 29.9239 9.11591 29.8103 9.26136C29.6966 9.40682 29.5694 9.55 29.4284 9.69091C29.5694 9.73636 29.7148 9.77955 29.8648 9.82045C30.0148 9.85682 30.1603 9.875 30.3012 9.875C30.4421 9.875 30.5898 9.86591 30.7444 9.84773C30.8989 9.825 31.0444 9.78409 31.1807 9.725C31.3216 9.66136 31.4444 9.575 31.5489 9.46591C31.658 9.35682 31.7398 9.21364 31.7944 9.03636C31.8125 8.97273 31.8216 8.90682 31.8216 8.83864C31.8216 8.71591 31.7853 8.55909 31.7125 8.36818C31.6398 8.17727 31.5057 7.93409 31.3103 7.63864C31.1194 7.34318 30.8807 7.01818 30.5944 6.66364C30.308 6.30455 29.9944 5.91364 29.6534 5.49091L28.9444 4.61136L30.2262 3.65ZM26.408 7.57727C26.408 7.74545 26.433 7.89545 26.483 8.02727C26.5375 8.15455 26.6171 8.27273 26.7216 8.38182C26.8307 8.49091 26.9625 8.59773 27.1171 8.70227C27.2762 8.80227 27.4603 8.90909 27.6694 9.02273C27.8103 8.95455 27.9466 8.87727 28.0784 8.79091C28.2103 8.70455 28.3239 8.60909 28.4194 8.50455C28.5194 8.39545 28.5989 8.275 28.658 8.14318C28.7171 8.01136 28.7466 7.86591 28.7466 7.70682C28.7466 7.51591 28.7057 7.34773 28.6239 7.20227C28.5421 7.05682 28.4421 6.93636 28.3239 6.84091C28.2057 6.74545 28.0784 6.675 27.9421 6.62955C27.8103 6.58409 27.6921 6.56136 27.5875 6.56136C27.433 6.56136 27.283 6.58864 27.1375 6.64318C26.9966 6.69773 26.8716 6.77273 26.7625 6.86818C26.6534 6.95909 26.5671 7.06591 26.5034 7.18864C26.4398 7.31136 26.408 7.44091 26.408 7.57727ZM42.2221 11.1023C41.7858 11.1023 41.3835 11.0409 41.0153 10.9182C40.6517 10.7909 40.338 10.6136 40.0744 10.3864C39.8108 10.1545 39.6039 9.87955 39.4539 9.56136C39.3085 9.24318 39.2358 8.89091 39.2358 8.50455C39.2358 8.12273 39.2835 7.78182 39.3789 7.48182C39.4744 7.17727 39.6017 6.89545 39.7608 6.63636C39.9244 6.37273 40.113 6.12273 40.3267 5.88636C40.5449 5.64545 40.7744 5.39773 41.0153 5.14318L40.5858 4.65909L41.8403 3.52045C41.8903 3.57955 41.9494 3.64545 42.0176 3.71818C42.0858 3.79091 42.1539 3.86591 42.2221 3.94318C42.2949 4.02045 42.3653 4.09545 42.4335 4.16818C42.5017 4.24091 42.563 4.30682 42.6176 4.36591C42.9449 4.71591 43.263 5.05682 43.5721 5.38864C43.8858 5.71591 44.163 6.04545 44.4039 6.37727C44.6494 6.70455 44.8471 7.03409 44.9971 7.36591C45.138 7.69318 45.2085 8.02955 45.2085 8.375V8.40909C45.2039 8.80909 45.1244 9.16818 44.9699 9.48636C44.8153 9.8 44.5903 10.0909 44.2949 10.3591C44.0221 10.5909 43.7108 10.7727 43.3608 10.9045C43.0153 11.0364 42.6358 11.1023 42.2221 11.1023ZM42.1403 6.18636C41.9585 6.39091 41.7858 6.58409 41.6221 6.76591C41.463 6.94773 41.3244 7.12955 41.2062 7.31136C41.0926 7.49318 41.0062 7.67955 40.9471 7.87045C40.8926 8.02955 40.8653 8.20227 40.8653 8.38864C40.8653 8.425 40.8676 8.46364 40.8721 8.50455C40.8858 8.67273 40.9358 8.81818 41.0221 8.94091C41.1085 9.05909 41.2153 9.15909 41.3426 9.24091C41.4699 9.31818 41.6108 9.375 41.7653 9.41136C41.9199 9.44773 42.0721 9.46591 42.2221 9.46591C42.3949 9.46591 42.5608 9.44091 42.7199 9.39091C42.8789 9.34091 43.0176 9.27045 43.1358 9.17955C43.2585 9.08864 43.3562 8.97727 43.4289 8.84545C43.5017 8.71364 43.538 8.56818 43.538 8.40909C43.538 8.21364 43.4994 8.02273 43.4221 7.83636C43.3449 7.65 43.2403 7.46591 43.1085 7.28409C42.9812 7.10227 42.8335 6.92045 42.6653 6.73864C42.4971 6.55682 42.3221 6.37273 42.1403 6.18636ZM49.5648 10.6864C49.5376 11.3136 49.4216 11.8773 49.2171 12.3773C49.0126 12.8818 48.7307 13.3091 48.3716 13.6591C48.0126 14.0136 47.5785 14.2864 47.0694 14.4773C46.5603 14.6682 45.9853 14.7636 45.3444 14.7636H44.4989V13.0659H45.3444C45.7807 13.0659 46.158 13.0205 46.4762 12.9295C46.7944 12.8386 47.0557 12.6932 47.2603 12.4932C47.4648 12.2932 47.6171 12.0318 47.7171 11.7091C47.8171 11.3909 47.8671 11.0023 47.8671 10.5432V6.39091H49.5648V10.6864ZM54.5964 11.1023C54.0964 11.1023 53.6668 11.0705 53.3077 11.0068C52.9487 10.9477 52.6464 10.8591 52.4009 10.7409C52.1555 10.6182 51.9577 10.4636 51.8077 10.2773C51.6623 10.0909 51.5509 9.87273 51.4737 9.62273C51.3964 9.37273 51.3441 9.09091 51.3168 8.77727C51.2941 8.45909 51.2827 8.10909 51.2827 7.72727V1.27045H52.9805V7.72727C52.9805 8.09091 52.9918 8.38182 53.0146 8.6C53.0418 8.81818 53.1077 8.98864 53.2123 9.11136C53.3214 9.22955 53.4827 9.30909 53.6964 9.35C53.9146 9.38636 54.2146 9.40455 54.5964 9.40455V11.1023ZM59.3962 9.81364C59.4371 9.81364 59.5008 9.80682 59.5871 9.79318C59.678 9.775 59.7689 9.725 59.8599 9.64318C59.9508 9.56136 60.0303 9.43636 60.0985 9.26818C60.1712 9.09545 60.2076 8.85455 60.2076 8.54545C60.2076 8.42727 60.1849 8.27727 60.1394 8.09545C60.0985 7.90909 60.0235 7.72955 59.9144 7.55682C59.8099 7.37955 59.6667 7.22955 59.4849 7.10682C59.3076 6.97955 59.0826 6.91591 58.8099 6.91591C58.5735 6.91591 58.3803 6.98636 58.2303 7.12727C58.0803 7.26818 57.953 7.44318 57.8485 7.65227C57.7485 7.86136 57.6621 8.08864 57.5894 8.33409C57.5212 8.575 57.4462 8.79545 57.3644 8.99545C57.5326 9.09091 57.7099 9.18864 57.8962 9.28864C58.0871 9.38409 58.2735 9.47045 58.4553 9.54773C58.6371 9.625 58.8076 9.68864 58.9667 9.73864C59.1303 9.78864 59.2735 9.81364 59.3962 9.81364ZM58.8099 5.225C59.278 5.225 59.6849 5.30909 60.0303 5.47727C60.3803 5.64545 60.6735 5.87273 60.9099 6.15909C61.1462 6.44545 61.3235 6.77727 61.4417 7.15455C61.5644 7.53182 61.6303 7.92727 61.6394 8.34091C61.6394 8.59545 61.6894 8.79545 61.7894 8.94091C61.8894 9.08182 62.003 9.18636 62.1303 9.25455C62.2576 9.32273 62.3826 9.36591 62.5053 9.38409C62.628 9.39773 62.7121 9.40455 62.7576 9.40455H62.9485V11.1023H62.7576C62.4349 11.1023 62.1371 11.0568 61.8644 10.9659C61.5962 10.8705 61.3508 10.75 61.128 10.6045C60.9917 10.7955 60.8417 10.9455 60.678 11.0545C60.5144 11.1682 60.3508 11.2523 60.1871 11.3068C60.0235 11.3614 59.8667 11.3955 59.7167 11.4091C59.5667 11.4227 59.4371 11.4295 59.328 11.4295C59.1008 11.4295 58.8849 11.4068 58.6803 11.3614C58.4758 11.3205 58.2667 11.2591 58.053 11.1773C57.8439 11.1 57.6258 11.0045 57.3985 10.8909C57.1712 10.7727 56.9235 10.6409 56.6553 10.4955C56.4508 10.7136 56.2303 10.8705 55.9939 10.9659C55.7621 11.0568 55.4894 11.1023 55.1758 11.1023H54.3371L54.3235 9.40455H55.1758C55.2758 9.40455 55.3621 9.375 55.4349 9.31591C55.5121 9.25682 55.5803 9.175 55.6394 9.07045C55.703 8.96136 55.7599 8.83182 55.8099 8.68182C55.8644 8.52727 55.9189 8.35682 55.9735 8.17045C56.0644 7.84318 56.1735 7.50682 56.3008 7.16136C56.428 6.81136 56.5962 6.49318 56.8053 6.20682C57.0189 5.92045 57.2871 5.68636 57.6099 5.50455C57.9326 5.31818 58.3326 5.225 58.8099 5.225ZM67.9572 11.0886C67.1254 11.0886 66.4663 10.8727 65.9799 10.4409C65.7299 10.6727 65.4526 10.8409 65.1481 10.9455C64.8436 11.05 64.5299 11.1023 64.2072 11.1023H62.6731V9.40455H64.2072C64.2617 9.40455 64.339 9.39545 64.439 9.37727C64.5436 9.35909 64.6458 9.31591 64.7458 9.24773C64.8504 9.175 64.9413 9.07045 65.0186 8.93409C65.0958 8.79318 65.1345 8.6 65.1345 8.35455V6.39091H66.8322V8.32727C66.8322 8.7 66.9186 8.97273 67.0913 9.14545C67.2686 9.31364 67.5572 9.39773 67.9572 9.39773C68.0117 9.39773 68.089 9.38864 68.189 9.37045C68.2936 9.34773 68.3958 9.3 68.4958 9.22727C68.6004 9.15455 68.6913 9.04773 68.7686 8.90682C68.8458 8.76136 68.8845 8.56818 68.8845 8.32727V6.39091H70.5754V8.32727C70.5754 8.7 70.664 8.975 70.8413 9.15227C71.0231 9.325 71.3163 9.41136 71.7208 9.41136C71.7799 9.41136 71.8595 9.4 71.9595 9.37727C72.064 9.35 72.1663 9.3 72.2663 9.22727C72.3663 9.15 72.4526 9.04091 72.5254 8.9C72.5981 8.75909 72.6345 8.56818 72.6345 8.32727C72.6345 8.22727 72.6254 8.10682 72.6072 7.96591C72.5936 7.825 72.5731 7.67727 72.5458 7.52273C72.5231 7.36364 72.4958 7.20455 72.464 7.04545C72.4322 6.88182 72.4004 6.72727 72.3686 6.58182C72.3367 6.43636 72.3049 6.30455 72.2731 6.18636C72.2458 6.06818 72.2231 5.975 72.2049 5.90682L73.8072 5.38182C73.8163 5.41364 73.8345 5.48636 73.8617 5.6C73.889 5.71364 73.9208 5.85455 73.9572 6.02273C73.9981 6.19091 74.039 6.37727 74.0799 6.58182C74.1208 6.78636 74.1572 6.99318 74.189 7.20227C74.2254 7.40682 74.2549 7.60909 74.2776 7.80909C74.3004 8.00455 74.3117 8.17727 74.3117 8.32727C74.3117 8.79091 74.2345 9.19773 74.0799 9.54773C73.9299 9.89318 73.7322 10.1818 73.4867 10.4136C73.2413 10.6409 72.964 10.8114 72.6549 10.925C72.3458 11.0386 72.0345 11.0977 71.7208 11.1023C70.8754 11.1023 70.2072 10.8795 69.7163 10.4341C69.4663 10.6659 69.189 10.8341 68.8845 10.9386C68.5845 11.0386 68.2754 11.0886 67.9572 11.0886ZM69.4981 3.37727L68.339 4.55L67.1799 3.39091L68.339 2.21818L69.4981 3.37727ZM72.4231 3.35L71.2776 4.50909L70.0845 3.36364L71.2572 2.19091L72.4231 3.35ZM70.9163 1.42727L69.8254 2.51818L68.7481 1.44091L69.839 0.35L70.9163 1.42727Z" fill="#0E1F50"/>
</svg>
