<svg width="76" height="91" viewBox="0 0 76 91" fill="none" xmlns="http://www.w3.org/2000/svg">
<path d="M14.0361 24.8678V19.2334C14.0361 13.9397 16.1869 9.13534 19.6651 5.64898L19.6738 5.64159L19.681 5.63438C23.165 2.15374 27.966 0 33.2547 0C38.5436 0 43.3445 2.15374 46.8284 5.63438L46.8358 5.64159L46.8445 5.64898C50.3227 9.13534 52.4733 13.9397 52.4733 19.2334V24.8678C50.0656 23.4169 47.4796 22.2303 44.7563 21.3493V19.2334C44.7563 16.0452 43.4743 13.1667 41.4025 11.0946L41.3879 11.0787C39.316 9.00521 36.4409 7.72231 33.2547 7.72231C30.0687 7.72231 27.1922 9.00521 25.1218 11.0787L25.1072 11.0946C23.0338 13.1667 21.7531 16.0452 21.7531 19.2334V21.3493C19.0298 22.2303 16.4439 23.4169 14.0361 24.8678Z" fill="#00FFAB"/>
<path fill-rule="evenodd" clip-rule="evenodd" d="M52.0912 41.895L32.6842 53.1081L18.6973 45.0336L32.7003 61.992L54.1807 44.8715L60.2607 40.0248L67.6478 34.1361L67.4653 40.3738L76 27.7756L61.175 31.1815L67.0142 33.2724L58.8548 37.9875C52.9018 30.0182 43.3974 24.8678 32.6901 24.8678C14.6366 24.8678 0 39.5146 0 57.5806C0 75.648 14.6368 90.295 32.6901 90.295C50.7451 90.295 65.3817 75.648 65.3817 57.5806C65.3817 53.2059 64.5231 49.0313 62.9651 45.2161L56.5609 50.3214C57.2573 52.6184 57.6326 55.0572 57.6326 57.5806C57.6326 71.3668 46.4667 82.5403 32.6901 82.5403C18.9164 82.5403 7.74909 71.3668 7.74909 57.5806C7.74909 43.7971 18.9164 32.6221 32.6901 32.6221C40.5283 32.6223 47.5179 36.2386 52.0912 41.895Z" fill="#00FFAB"/>
</svg>
