<svg width="88" height="88" viewBox="0 0 88 88" fill="none" xmlns="http://www.w3.org/2000/svg">
<path opacity="0.4" d="M43.9997 80.6666C64.2501 80.6666 80.6663 64.2504 80.6663 43.9999C80.6663 23.7495 64.2501 7.33325 43.9997 7.33325C23.7492 7.33325 7.33301 23.7495 7.33301 43.9999C7.33301 64.2504 23.7492 80.6666 43.9997 80.6666Z" fill="#0E1F50"/>
<path d="M47.887 44.0001L56.3203 35.5667C57.3836 34.5034 57.3836 32.7434 56.3203 31.6801C55.257 30.6167 53.497 30.6167 52.4336 31.6801L44.0003 40.1134L35.567 31.6801C34.5036 30.6167 32.7436 30.6167 31.6803 31.6801C30.617 32.7434 30.617 34.5034 31.6803 35.5667L40.1136 44.0001L31.6803 52.4334C30.617 53.4967 30.617 55.2567 31.6803 56.3201C32.2303 56.8701 32.927 57.1267 33.6236 57.1267C34.3203 57.1267 35.017 56.8701 35.567 56.3201L44.0003 47.8867L52.4336 56.3201C52.9836 56.8701 53.6803 57.1267 54.377 57.1267C55.0736 57.1267 55.7703 56.8701 56.3203 56.3201C57.3836 55.2567 57.3836 53.4967 56.3203 52.4334L47.887 44.0001Z" fill="#0E1F50"/>
</svg>
