<svg width="88" height="88" viewBox="0 0 88 88" fill="none" xmlns="http://www.w3.org/2000/svg">
<path opacity="0.4" d="M40.1866 7.73669L20.0199 15.29C16.1699 16.7567 13.0166 21.3034 13.0166 25.4467V55.1467C13.0166 58.1167 14.9599 62.04 17.3433 63.8L37.5099 78.87C41.0666 81.5467 46.8966 81.5467 50.4533 78.87L70.6199 63.8C73.0033 62.0034 74.9466 58.1167 74.9466 55.1467V25.4467C74.9466 21.34 71.7933 16.7567 67.9433 15.3267L47.7766 7.77336C45.7233 6.96669 42.2766 6.96669 40.1866 7.73669Z" fill="#0E1F50"/>
<path d="M53.1663 38.5C53.1663 33.44 49.0597 29.3334 43.9997 29.3334C38.9397 29.3334 34.833 33.44 34.833 38.5C34.833 42.6067 37.5463 46.0167 41.2497 47.19V56.8334C41.2497 58.3367 42.4963 59.5834 43.9997 59.5834C45.503 59.5834 46.7497 58.3367 46.7497 56.8334V47.19C50.453 46.0167 53.1663 42.6067 53.1663 38.5Z" fill="#0E1F50"/>
</svg>
