<svg width="32" height="32" viewBox="0 0 32 32" fill="none" xmlns="http://www.w3.org/2000/svg">
<path opacity="0.4" d="M15.9999 29.3333C22.3844 29.3333 27.5599 24.1577 27.5599 17.7733C27.5599 11.3889 22.3844 6.21333 15.9999 6.21333C9.61553 6.21333 4.43994 11.3889 4.43994 17.7733C4.43994 24.1577 9.61553 29.3333 15.9999 29.3333Z" fill="#00FFAB"/>
<path d="M16 18.3333C15.4533 18.3333 15 17.88 15 17.3333V10.6667C15 10.12 15.4533 9.66666 16 9.66666C16.5467 9.66666 17 10.12 17 10.6667V17.3333C17 17.88 16.5467 18.3333 16 18.3333Z" fill="#00FFAB"/>
<path d="M19.8532 4.6H12.1465C11.6132 4.6 11.1865 4.17333 11.1865 3.64C11.1865 3.10666 11.6132 2.66666 12.1465 2.66666H19.8532C20.3865 2.66666 20.8132 3.09333 20.8132 3.62666C20.8132 4.16 20.3865 4.6 19.8532 4.6Z" fill="#00FFAB"/>
</svg>
