<svg width="32" height="32" viewBox="0 0 32 32" fill="none" xmlns="http://www.w3.org/2000/svg">
<path opacity="0.4" d="M2.66699 17.1733V14.8267C2.66699 13.44 3.80033 12.2933 5.20033 12.2933C7.61366 12.2933 8.60033 10.5867 7.38699 8.49333C6.69366 7.29333 7.10699 5.73333 8.32033 5.04L10.627 3.72C11.6803 3.09333 13.0403 3.46666 13.667 4.52L13.8137 4.77333C15.0137 6.86666 16.987 6.86666 18.2003 4.77333L18.347 4.52C18.9737 3.46666 20.3337 3.09333 21.387 3.72L23.6937 5.04C24.907 5.73333 25.3203 7.29333 24.627 8.49333C23.4137 10.5867 24.4003 12.2933 26.8137 12.2933C28.2003 12.2933 29.347 13.4267 29.347 14.8267V17.1733C29.347 18.56 28.2137 19.7067 26.8137 19.7067C24.4003 19.7067 23.4137 21.4133 24.627 23.5067C25.3203 24.72 24.907 26.2667 23.6937 26.96L21.387 28.28C20.3337 28.9067 18.9737 28.5333 18.347 27.48L18.2003 27.2267C17.0003 25.1333 15.027 25.1333 13.8137 27.2267L13.667 27.48C13.0403 28.5333 11.6803 28.9067 10.627 28.28L8.32033 26.96C7.10699 26.2667 6.69366 24.7067 7.38699 23.5067C8.60033 21.4133 7.61366 19.7067 5.20033 19.7067C3.80033 19.7067 2.66699 18.56 2.66699 17.1733Z" fill="#00FFAB"/>
<path d="M16.0003 20.3333C18.3936 20.3333 20.3337 18.3932 20.3337 16C20.3337 13.6067 18.3936 11.6666 16.0003 11.6666C13.6071 11.6666 11.667 13.6067 11.667 16C11.667 18.3932 13.6071 20.3333 16.0003 20.3333Z" fill="#00FFAB"/>
</svg>
