<svg width="88" height="88" viewBox="0 0 88 88" fill="none" xmlns="http://www.w3.org/2000/svg">
<path d="M44 50.4168C42.4967 50.4168 41.25 49.1702 41.25 47.6668V29.3335C41.25 27.8302 42.4967 26.5835 44 26.5835C45.5033 26.5835 46.75 27.8302 46.75 29.3335V47.6668C46.75 49.1702 45.5033 50.4168 44 50.4168Z" fill="#0E1F50"/>
<path d="M54.598 12.6502H33.4046C31.938 12.6502 30.7646 11.4768 30.7646 10.0102C30.7646 8.5435 31.938 7.3335 33.4046 7.3335H54.598C56.0646 7.3335 57.238 8.50683 57.238 9.9735C57.238 11.4402 56.0646 12.6502 54.598 12.6502Z" fill="#0E1F50"/>
<path opacity="0.4" d="M54.998 73.2233V62.4433C54.998 57.7867 57.7847 55 62.4413 55H73.2213C73.918 55 74.5413 55.0733 75.1647 55.22C75.568 53.1667 75.788 51.04 75.788 48.8767C75.788 31.35 61.5247 17.0867 43.998 17.0867C26.4713 17.0867 12.208 31.35 12.208 48.8767C12.208 66.4033 26.4713 80.6667 43.998 80.6667C48.4347 80.6667 52.6513 79.75 56.5013 78.1C55.548 76.8533 54.998 75.24 54.998 73.2233Z" fill="#0E1F50"/>
<path d="M73.2233 55H62.4433C57.7867 55 55 57.7867 55 62.4433V73.2233C55 77.88 57.7867 80.6667 62.4433 80.6667H73.2233C77.88 80.6667 80.6667 77.88 80.6667 73.2233V62.4433C80.6667 57.7867 77.88 55 73.2233 55ZM72.1967 71.3533L67.87 73.8467C66.99 74.36 66.11 74.6167 65.3033 74.6167C64.68 74.6167 64.13 74.47 63.6167 74.1767C62.4433 73.48 61.7833 72.1233 61.7833 70.3267V65.34C61.7833 63.5433 62.4433 62.1867 63.6167 61.49C64.79 60.7933 66.2933 60.94 67.87 61.82L72.1967 64.3133C73.7367 65.23 74.6167 66.4767 74.6167 67.8333C74.6167 69.19 73.7733 70.4367 72.1967 71.3533Z" fill="#0E1F50"/>
</svg>
