<svg width="38" height="38" viewBox="0 0 38 38" fill="none" xmlns="http://www.w3.org/2000/svg">
<path d="M17.0233 26.6956V29.9098C17.0233 32.6331 14.4899 34.8339 11.3708 34.8339C8.25159 34.8339 5.70239 32.6331 5.70239 29.9098V26.6956C5.70239 29.4189 8.23575 31.3506 11.3708 31.3506C14.4899 31.3506 17.0233 29.4031 17.0233 26.6956Z" stroke="#0E1F50" stroke-width="1.5" stroke-linecap="round" stroke-linejoin="round"/>
<path d="M17.021 22.3408C17.021 23.1325 16.7993 23.8608 16.4193 24.4941C15.4851 26.03 13.5693 26.9958 11.3526 26.9958C9.13592 26.9958 7.22007 26.0141 6.2859 24.4941C5.9059 23.8608 5.68433 23.1325 5.68433 22.3408C5.68433 20.9791 6.31762 19.76 7.33096 18.8733C8.36012 17.9708 9.76924 17.4325 11.3367 17.4325C12.9042 17.4325 14.3135 17.9866 15.3426 18.8733C16.3876 19.7441 17.021 20.9791 17.021 22.3408Z" stroke="#0E1F50" stroke-width="1.5" stroke-linecap="round" stroke-linejoin="round"/>
<path d="M17.0233 22.3408V26.695C17.0233 29.4183 14.4899 31.35 11.3708 31.35C8.25159 31.35 5.70239 29.4025 5.70239 26.695V22.3408C5.70239 19.6175 8.23575 17.4167 11.3708 17.4167C12.9383 17.4167 14.3475 17.9708 15.3766 18.8575C16.39 19.7441 17.0233 20.9791 17.0233 22.3408Z" stroke="#0E1F50" stroke-width="1.5" stroke-linecap="round" stroke-linejoin="round"/>
<path d="M34.8333 17.3691V20.6309C34.8333 21.5017 34.1366 22.2141 33.2499 22.2458H30.1466C28.4366 22.2458 26.8691 20.995 26.7266 19.285C26.6316 18.2875 27.0116 17.3533 27.6766 16.7041C28.2624 16.1025 29.0699 15.7542 29.9566 15.7542H33.2499C34.1366 15.7859 34.8333 16.4983 34.8333 17.3691Z" stroke="#0E1F50" stroke-width="1.5" stroke-linecap="round" stroke-linejoin="round"/>
<path d="M3.16675 16.625V13.4583C3.16675 9.15167 5.76342 6.14333 9.80092 5.63666C10.2126 5.57333 10.6401 5.54167 11.0834 5.54167H25.3334C25.7451 5.54167 26.1409 5.55748 26.5209 5.62081C30.6059 6.09581 33.2501 9.12 33.2501 13.4583V15.7542H29.9567C29.0701 15.7542 28.2626 16.1025 27.6767 16.7041C27.0117 17.3533 26.6318 18.2875 26.7268 19.285C26.8693 20.995 28.4367 22.2458 30.1467 22.2458H33.2501V24.5417C33.2501 29.2917 30.0834 32.4583 25.3334 32.4583H21.3751" stroke="#0E1F50" stroke-width="1.5" stroke-linecap="round" stroke-linejoin="round"/>
</svg>
