<svg width="28" height="28" viewBox="0 0 28 28" fill="none" xmlns="http://www.w3.org/2000/svg">
<path d="M25.2817 8.1083C24.535 5.57664 22.4233 3.46497 19.8917 2.7183C17.9667 2.1583 16.6367 2.20497 15.715 2.8933C14.6067 3.72164 14.4783 5.21497 14.4783 6.27664V9.18164C14.4783 12.0516 15.785 13.51 18.3517 13.51H21.7C22.75 13.51 24.255 13.3816 25.0833 12.2733C25.795 11.3633 25.8533 10.0333 25.2817 8.1083Z" fill="#0E1F50"/>
<path opacity="0.4" d="M22.0617 15.5866C21.7583 15.2366 21.315 15.0383 20.86 15.0383H16.6833C14.63 15.0383 12.9617 13.3699 12.9617 11.3166V7.13993C12.9617 6.68493 12.7633 6.2416 12.4133 5.93826C12.075 5.63493 11.6083 5.49493 11.165 5.55326C8.42334 5.90326 5.90334 7.40826 4.25834 9.6716C2.60167 11.9466 1.995 14.7233 2.52 17.4999C3.27834 21.5133 6.48667 24.7216 10.5117 25.4799C11.1533 25.6083 11.795 25.6666 12.4367 25.6666C14.5483 25.6666 16.59 25.0133 18.3283 23.7416C20.5917 22.0966 22.0967 19.5766 22.4467 16.8349C22.505 16.3799 22.365 15.9249 22.0617 15.5866Z" fill="#0E1F50"/>
</svg>
