<svg width="28" height="28" viewBox="0 0 28 28" fill="none" xmlns="http://www.w3.org/2000/svg">
<path opacity="0.4" d="M21.0466 15.8083C20.5566 16.2866 20.2766 16.975 20.3466 17.71C20.4516 18.97 21.6066 19.8916 22.8666 19.8916H25.0833V21.2799C25.0833 23.6949 23.1116 25.6666 20.6966 25.6666H7.30329C4.88829 25.6666 2.91663 23.6949 2.91663 21.2799V13.4283C2.91663 11.0133 4.88829 9.04163 7.30329 9.04163H20.6966C23.1116 9.04163 25.0833 11.0133 25.0833 13.4283V15.1083H22.7266C22.0733 15.1083 21.4783 15.3649 21.0466 15.8083Z" fill="#0E1F50"/>
<path d="M17.325 4.60836V9.04167H7.30329C4.88829 9.04167 2.91663 11.0134 2.91663 13.4284V9.14671C2.91663 7.75837 3.76829 6.52165 5.06329 6.03165L14.3266 2.53165C15.7733 1.99499 17.325 3.05669 17.325 4.60836Z" fill="#0E1F50"/>
<path d="M26.32 16.2983V18.7018C26.32 19.3434 25.8067 19.8684 25.1534 19.8917H22.8667C21.6067 19.8917 20.4517 18.97 20.3467 17.71C20.2767 16.975 20.5567 16.2867 21.0467 15.8084C21.4784 15.365 22.0734 15.1084 22.7267 15.1084H25.1534C25.8067 15.1317 26.32 15.6567 26.32 16.2983Z" fill="#0E1F50"/>
<path d="M16.3333 14.875H8.16663C7.68829 14.875 7.29163 14.4783 7.29163 14C7.29163 13.5217 7.68829 13.125 8.16663 13.125H16.3333C16.8116 13.125 17.2083 13.5217 17.2083 14C17.2083 14.4783 16.8116 14.875 16.3333 14.875Z" fill="#0E1F50"/>
</svg>
