<svg width="34" height="41" viewBox="0 0 34 41" fill="none" xmlns="http://www.w3.org/2000/svg">
<path d="M7.00366 11.7223V9.26751C7.00366 6.96117 7.94071 4.86801 9.45609 3.34907L9.45987 3.34585L9.46301 3.34271C10.9809 1.82628 13.0726 0.887939 15.3768 0.887939C17.681 0.887939 19.7727 1.82628 21.2905 3.34271L21.2937 3.34585L21.2975 3.34907C22.8129 4.86801 23.7499 6.96117 23.7499 9.26751V11.7223C22.7009 11.0901 21.5742 10.5732 20.3878 10.1893V9.26751C20.3878 7.87848 19.8292 6.62436 18.9266 5.72162L18.9202 5.71469C18.0175 4.81131 16.7649 4.25238 15.3768 4.25238C13.9887 4.25238 12.7355 4.81131 11.8334 5.71469L11.8271 5.72162C10.9237 6.62436 10.3658 7.87848 10.3658 9.26751V10.1893C9.17931 10.5732 8.05265 11.0901 7.00366 11.7223Z" fill="#00FFAB"/>
<path fill-rule="evenodd" clip-rule="evenodd" d="M23.5834 19.1406L15.1282 24.026L9.03442 20.5081L15.1352 27.8965L24.4937 20.4375L27.1427 18.3259L30.3611 15.7603L30.2815 18.4779L33.9999 12.9891L27.541 14.473L30.085 15.384L26.5301 17.4383C23.9366 13.9662 19.7957 11.7223 15.1308 11.7223C7.26528 11.7223 0.888428 18.1036 0.888428 25.9745C0.888428 33.8461 7.26536 40.2274 15.1308 40.2274C22.9969 40.2274 29.3738 33.8461 29.3738 25.9745C29.3738 24.0686 28.9997 22.2498 28.3209 20.5876L25.5307 22.8119C25.8341 23.8126 25.9977 24.8751 25.9977 25.9745C25.9977 31.9808 21.1329 36.8489 15.1308 36.8489C9.12987 36.8489 4.26453 31.9808 4.26453 25.9745C4.26453 19.9694 9.12987 15.1007 15.1308 15.1007C18.5457 15.1007 21.5909 16.6763 23.5834 19.1406Z" fill="#00FFAB"/>
</svg>
