<svg width="32" height="32" viewBox="0 0 32 32" fill="none" xmlns="http://www.w3.org/2000/svg">
<path d="M22.3333 4.74662V2.66663C22.3333 2.11996 21.88 1.66663 21.3333 1.66663C20.7866 1.66663 20.3333 2.11996 20.3333 2.66663V4.66663H11.6666V2.66663C11.6666 2.11996 11.2133 1.66663 10.6666 1.66663C10.12 1.66663 9.66665 2.11996 9.66665 2.66663V4.74662C6.06665 5.07996 4.31998 7.22662 4.05331 10.4133C4.02665 10.8 4.34665 11.12 4.71998 11.12H27.28C27.6666 11.12 27.9866 10.7866 27.9466 10.4133C27.68 7.22662 25.9333 5.07996 22.3333 4.74662Z" fill="white"/>
<path opacity="0.4" d="M28 14.4534V16.7734C28 17.5867 27.28 18.2134 26.48 18.08C26.1067 18.0267 25.72 17.9867 25.3333 17.9867C21.2933 17.9867 18 21.28 18 25.32C18 25.9334 18.24 26.7867 18.4933 27.5601C18.7867 28.4267 18.1467 29.32 17.2267 29.32H10.6667C6 29.32 4 26.6534 4 22.6534V14.44C4 13.7067 4.6 13.1067 5.33333 13.1067H26.6667C27.4 13.12 28 13.72 28 14.4534Z" fill="white"/>
<path d="M25.3333 20C22.3867 20 20 22.3867 20 25.3333C20 26.3333 20.28 27.28 20.7733 28.08C21.6933 29.6267 23.3867 30.6667 25.3333 30.6667C27.28 30.6667 28.9733 29.6267 29.8933 28.08C30.3867 27.28 30.6667 26.3333 30.6667 25.3333C30.6667 22.3867 28.28 20 25.3333 20ZM28.0933 24.76L25.2533 27.3867C25.0667 27.56 24.8133 27.6533 24.5733 27.6533C24.32 27.6533 24.0667 27.56 23.8667 27.36L22.5467 26.04C22.16 25.6533 22.16 25.0133 22.5467 24.6267C22.9333 24.24 23.5733 24.24 23.96 24.6267L24.6 25.2667L26.7333 23.2933C27.1333 22.92 27.7733 22.9467 28.1467 23.3467C28.52 23.7467 28.4933 24.3733 28.0933 24.76Z" fill="#00DF96" fill-opacity="0.6"/>
<path d="M11.3333 20C10.9867 20 10.64 19.8533 10.3867 19.6133C10.1467 19.36 10 19.0133 10 18.6667C10 18.32 10.1467 17.9734 10.3867 17.72C10.6933 17.4134 11.16 17.2667 11.6 17.36C11.68 17.3733 11.76 17.4 11.84 17.44C11.92 17.4667 12 17.5067 12.08 17.56C12.1467 17.6134 12.2133 17.6667 12.28 17.72C12.52 17.9734 12.6667 18.32 12.6667 18.6667C12.6667 19.0133 12.52 19.36 12.28 19.6133C12.2133 19.6667 12.1467 19.72 12.08 19.7733C12 19.8267 11.92 19.8667 11.84 19.8934C11.76 19.9334 11.68 19.96 11.6 19.9734C11.5067 19.9867 11.4133 20 11.3333 20Z" fill="white"/>
<path d="M16.0003 20C15.6537 20 15.307 19.8533 15.0537 19.6133C14.8137 19.36 14.667 19.0133 14.667 18.6666C14.667 18.32 14.8137 17.9733 15.0537 17.72C15.5603 17.2266 16.4537 17.2266 16.947 17.72C17.187 17.9733 17.3337 18.32 17.3337 18.6666C17.3337 19.0133 17.187 19.36 16.947 19.6133C16.6937 19.8533 16.347 20 16.0003 20Z" fill="white"/>
<path d="M11.3333 24.6667C10.9867 24.6667 10.64 24.52 10.3867 24.28C10.1467 24.0266 10 23.68 10 23.3333C10 22.9867 10.1467 22.64 10.3867 22.3867C10.52 22.2667 10.6533 22.1733 10.8267 22.1066C11.32 21.8933 11.9067 22.0133 12.28 22.3867C12.52 22.64 12.6667 22.9867 12.6667 23.3333C12.6667 23.68 12.52 24.0266 12.28 24.28C12.0267 24.52 11.68 24.6667 11.3333 24.6667Z" fill="white"/>
</svg>
