<svg width="44" height="52" viewBox="0 0 44 52" fill="none" xmlns="http://www.w3.org/2000/svg">
<path d="M8.08325 14.3211V11.0763C8.08325 8.02775 9.32186 5.26096 11.3249 3.25319L11.3299 3.24894L11.3341 3.24478C13.3405 1.24032 16.1053 0 19.151 0C22.1969 0 24.9616 1.24032 26.968 3.24478L26.9723 3.24894L26.9773 3.25319C28.9803 5.26096 30.2188 8.02775 30.2188 11.0763V14.3211C28.8323 13.4855 27.343 12.8022 25.7747 12.2948V11.0763C25.7747 9.24029 25.0364 7.58255 23.8432 6.38929L23.8348 6.38013C22.6417 5.18601 20.9859 4.44721 19.151 4.44721C17.3163 4.44721 15.6597 5.18601 14.4674 6.38013L14.459 6.38929C13.2649 7.58255 12.5274 9.24029 12.5274 11.0763V12.2948C10.9591 12.8022 9.46984 13.4855 8.08325 14.3211Z" fill="#00FFAB"/>
<path fill-rule="evenodd" clip-rule="evenodd" d="M29.9988 24.1269L18.8225 30.5844L10.7676 25.9344L18.8318 35.7006L31.2021 25.841L34.7036 23.0499L38.9577 19.6586L38.8526 23.2509L43.7677 15.9957L35.2301 17.9571L38.5928 19.1612L33.8939 21.8766C30.4656 17.2872 24.9922 14.3211 18.8259 14.3211C8.42909 14.3211 0 22.7561 0 33.1601C0 43.5649 8.4292 52 18.8259 52C29.2236 52 37.6527 43.5649 37.6527 33.1601C37.6527 30.6407 37.1582 28.2366 36.261 26.0395L32.5729 28.9796C32.9739 30.3024 33.1901 31.7069 33.1901 33.1601C33.1901 41.0994 26.7597 47.5341 18.8259 47.5341C10.8938 47.5341 4.46263 41.0994 4.46263 33.1601C4.46263 25.2223 10.8938 18.7867 18.8259 18.7867C23.3398 18.7868 27.3651 20.8694 29.9988 24.1269Z" fill="#00FFAB"/>
</svg>
