<svg width="32" height="32" viewBox="0 0 32 32" fill="none" xmlns="http://www.w3.org/2000/svg">
<path opacity="0.4" d="M15.9998 2.66666C12.5065 2.66666 9.6665 5.50666 9.6665 8.99999C9.6665 12.4267 12.3465 15.2 15.8398 15.32C15.9465 15.3067 16.0532 15.3067 16.1332 15.32C16.1598 15.32 16.1732 15.32 16.1998 15.32C16.2132 15.32 16.2132 15.32 16.2265 15.32C19.6398 15.2 22.3198 12.4267 22.3332 8.99999C22.3332 5.50666 19.4932 2.66666 15.9998 2.66666Z" fill="#00FFAB"/>
<path d="M22.7733 18.8667C19.0533 16.3867 12.9866 16.3867 9.23995 18.8667C7.54661 20 6.61328 21.5333 6.61328 23.1733C6.61328 24.8133 7.54661 26.3333 9.22661 27.4533C11.0933 28.7067 13.5466 29.3333 15.9999 29.3333C18.4533 29.3333 20.9066 28.7067 22.7733 27.4533C24.4533 26.32 25.3866 24.8 25.3866 23.1467C25.3733 21.5067 24.4533 19.9867 22.7733 18.8667Z" fill="#00FFAB"/>
</svg>
