<svg width="32" height="32" viewBox="0 0 32 32" fill="none" xmlns="http://www.w3.org/2000/svg">
<path d="M9.65366 2.66663H7.12033C4.20033 2.66663 2.66699 4.19996 2.66699 7.10663V9.63996C2.66699 12.5466 4.20033 14.08 7.10699 14.08H9.64033C12.547 14.08 14.0803 12.5466 14.0803 9.63996V7.10663C14.0937 4.19996 12.5603 2.66663 9.65366 2.66663Z" fill="#00FFAB"/>
<path opacity="0.4" d="M24.8933 2.66663H22.3599C19.4533 2.66663 17.9199 4.19996 17.9199 7.10663V9.63996C17.9199 12.5466 19.4533 14.08 22.3599 14.08H24.8933C27.7999 14.08 29.3333 12.5466 29.3333 9.63996V7.10663C29.3333 4.19996 27.7999 2.66663 24.8933 2.66663Z" fill="#00FFAB"/>
<path d="M24.8933 17.9066H22.3599C19.4533 17.9066 17.9199 19.4399 17.9199 22.3466V24.8799C17.9199 27.7866 19.4533 29.3199 22.3599 29.3199H24.8933C27.7999 29.3199 29.3333 27.7866 29.3333 24.8799V22.3466C29.3333 19.4399 27.7999 17.9066 24.8933 17.9066Z" fill="#00FFAB"/>
<path opacity="0.4" d="M9.65366 17.9066H7.12033C4.20033 17.9066 2.66699 19.4399 2.66699 22.3466V24.8799C2.66699 27.7999 4.20033 29.3333 7.10699 29.3333H9.64033C12.547 29.3333 14.0803 27.7999 14.0803 24.8933V22.36C14.0937 19.4399 12.5603 17.9066 9.65366 17.9066Z" fill="#00FFAB"/>
</svg>
